<?xml version="1.0" encoding="utf-8"?>
<!-- Generator: Adobe Illustrator 19.0.0, SVG Export Plug-In . SVG Version: 6.00 Build 0)  -->
<svg version="1.1" id="Layer_1" xmlns="http://www.w3.org/2000/svg" xmlns:xlink="http://www.w3.org/1999/xlink" x="0px" y="0px"
	 viewBox="0 0 402.7 253.6" style="enable-background:new 0 0 402.7 253.6;" xml:space="preserve">
<style type="text/css">
	.st0{fill:url(#XMLID_55_);}
	.st1{fill:url(#XMLID_56_);}
	.st2{fill:#002BFF;}
	.st3{stroke:#000000;stroke-width:5;stroke-miterlimit:10;}
</style>
<linearGradient id="XMLID_55_" gradientUnits="userSpaceOnUse" x1="2.5" y1="126.7898" x2="251.0796" y2="126.7898">
	<stop  offset="0" style="stop-color:#FFFF00"/>
	<stop  offset="8.443775e-002" style="stop-color:#FFF607"/>
	<stop  offset="0.225" style="stop-color:#FEDC19"/>
	<stop  offset="0.4043" style="stop-color:#FDB237"/>
	<stop  offset="0.6153" style="stop-color:#FC7960"/>
	<stop  offset="0.8504" style="stop-color:#FA3094"/>
	<stop  offset="0.9944" style="stop-color:#F900B6"/>
</linearGradient>
<circle id="XMLID_1_" class="st0" cx="126.8" cy="126.8" r="124.3"/>
<linearGradient id="XMLID_56_" gradientUnits="userSpaceOnUse" x1="99.4873" y1="185.6083" x2="402.672" y2="185.6083">
	<stop  offset="0" style="stop-color:#F900B6"/>
	<stop  offset="0.5161" style="stop-color:#FFEB0F"/>
	<stop  offset="0.8871" style="stop-color:#FFF706"/>
	<stop  offset="1" style="stop-color:#FFFF00"/>
</linearGradient>
<rect id="XMLID_2_" x="99.5" y="156.3" class="st1" width="303.2" height="58.6"/>
<g id="XMLID_81_">
	<path id="XMLID_82_" d="M160.7,146.8c0,3.2-0.7,6-2,8.3c-1.3,2.3-3.2,4.2-5.6,5.7c-2.4,1.5-5.1,2.6-8.2,3.3s-6.4,1.1-9.9,1.1H99.7
		V93.5h41.6c2.5,0,4.7,0.5,6.8,1.6c2,1.1,3.7,2.5,5.2,4.2c1.4,1.7,2.5,3.7,3.3,5.9c0.8,2.2,1.2,4.4,1.2,6.7c0,3.4-0.9,6.6-2.6,9.6
		c-1.7,3.1-4.3,5.4-7.7,6.9c4.1,1.2,7.4,3.3,9.7,6.3C159.6,137.8,160.7,141.8,160.7,146.8z M119.4,110.3v11h13.4
		c1.3,0,2.6-0.4,3.7-1.1c1.1-0.7,1.7-2.2,1.7-4.4c0-2-0.5-3.3-1.4-4.2c-0.9-0.8-2.1-1.3-3.3-1.3H119.4z M140.7,142.8
		c0-1.8-0.5-3.2-1.4-4.4c-0.9-1.2-2.2-1.8-3.6-1.8h-16.3v12H135c1.6,0,3-0.5,4.1-1.5C140.2,146.1,140.7,144.7,140.7,142.8z"/>
	<path id="XMLID_86_" d="M201.8,165.8c-5.5,0-10.4-1-14.8-3.1c-4.4-2.1-8.2-4.8-11.4-8.2c-3.2-3.4-5.6-7.3-7.4-11.7
		c-1.8-4.4-2.6-8.9-2.6-13.5c0-4.7,0.9-9.3,2.7-13.6c1.8-4.4,4.4-8.2,7.6-11.6c3.3-3.3,7.1-6,11.6-8c4.5-2,9.4-3,14.7-3
		c5.5,0,10.4,1,14.8,3.1c4.4,2.1,8.2,4.8,11.4,8.3c3.2,3.4,5.6,7.3,7.3,11.7c1.7,4.4,2.6,8.9,2.6,13.4c0,4.7-0.9,9.2-2.7,13.6
		c-1.8,4.3-4.3,8.2-7.6,11.5c-3.2,3.3-7.1,6-11.6,8C212,164.8,207.1,165.8,201.8,165.8z M185.5,129.5c0,2.4,0.3,4.8,1,7
		c0.7,2.3,1.7,4.3,3,6c1.3,1.8,3,3.2,5.1,4.2c2.1,1.1,4.5,1.6,7.3,1.6s5.3-0.6,7.4-1.7c2.1-1.1,3.8-2.6,5.1-4.3
		c1.3-1.8,2.3-3.8,2.9-6.1c0.6-2.3,1-4.6,1-7c0-2.4-0.3-4.8-1-7c-0.7-2.3-1.7-4.2-3.1-6c-1.4-1.7-3.1-3.1-5.2-4.1
		c-2.1-1-4.5-1.6-7.2-1.6c-2.8,0-5.3,0.5-7.3,1.6c-2.1,1.1-3.8,2.5-5.1,4.3c-1.3,1.8-2.3,3.8-3,6.1
		C185.8,124.8,185.5,127.1,185.5,129.5z"/>
	<path id="XMLID_89_" d="M246.7,165.2V93.5h49.2v17.2h-29.5v11.9h24v16h-24v26.7H246.7z"/>
	<path id="XMLID_91_" d="M303.6,165.2V93.5h49.2v17.2h-29.5v11.9h24v16h-24v26.7H303.6z"/>
</g>
<g id="XMLID_57_">
	<path id="XMLID_58_" d="M160.7,146.8c0,3.2-0.7,6-2,8.3c-1.3,2.3-3.2,4.2-5.6,5.7c-2.4,1.5-5.1,2.6-8.2,3.3s-6.4,1.1-9.9,1.1H99.7
		V93.5h41.6c2.5,0,4.7,0.5,6.8,1.6c2,1.1,3.7,2.5,5.2,4.2c1.4,1.7,2.5,3.7,3.3,5.9c0.8,2.2,1.2,4.4,1.2,6.7c0,3.4-0.9,6.6-2.6,9.6
		c-1.7,3.1-4.3,5.4-7.7,6.9c4.1,1.2,7.4,3.3,9.7,6.3C159.6,137.8,160.7,141.8,160.7,146.8z M119.4,110.3v11h13.4
		c1.3,0,2.6-0.4,3.7-1.1c1.1-0.7,1.7-2.2,1.7-4.4c0-2-0.5-3.3-1.4-4.2c-0.9-0.8-2.1-1.3-3.3-1.3H119.4z M140.7,142.8
		c0-1.8-0.5-3.2-1.4-4.4c-0.9-1.2-2.2-1.8-3.6-1.8h-16.3v12H135c1.6,0,3-0.5,4.1-1.5C140.2,146.1,140.7,144.7,140.7,142.8z"/>
	<path id="XMLID_62_" d="M201.8,165.8c-5.5,0-10.4-1-14.8-3.1c-4.4-2.1-8.2-4.8-11.4-8.2c-3.2-3.4-5.6-7.3-7.4-11.7
		c-1.8-4.4-2.6-8.9-2.6-13.5c0-4.7,0.9-9.3,2.7-13.6c1.8-4.4,4.4-8.2,7.6-11.6c3.3-3.3,7.1-6,11.6-8c4.5-2,9.4-3,14.7-3
		c5.5,0,10.4,1,14.8,3.1c4.4,2.1,8.2,4.8,11.4,8.3c3.2,3.4,5.6,7.3,7.3,11.7c1.7,4.4,2.6,8.9,2.6,13.4c0,4.7-0.9,9.2-2.7,13.6
		c-1.8,4.3-4.3,8.2-7.6,11.5c-3.2,3.3-7.1,6-11.6,8C212,164.8,207.1,165.8,201.8,165.8z M185.5,129.5c0,2.4,0.3,4.8,1,7
		c0.7,2.3,1.7,4.3,3,6c1.3,1.8,3,3.2,5.1,4.2c2.1,1.1,4.5,1.6,7.3,1.6s5.3-0.6,7.4-1.7c2.1-1.1,3.8-2.6,5.1-4.3
		c1.3-1.8,2.3-3.8,2.9-6.1c0.6-2.3,1-4.6,1-7c0-2.4-0.3-4.8-1-7c-0.7-2.3-1.7-4.2-3.1-6c-1.4-1.7-3.1-3.1-5.2-4.1
		c-2.1-1-4.5-1.6-7.2-1.6c-2.8,0-5.3,0.5-7.3,1.6c-2.1,1.1-3.8,2.5-5.1,4.3c-1.3,1.8-2.3,3.8-3,6.1
		C185.8,124.8,185.5,127.1,185.5,129.5z"/>
	<path id="XMLID_65_" d="M246.7,165.2V93.5h49.2v17.2h-29.5v11.9h24v16h-24v26.7H246.7z"/>
	<path id="XMLID_67_" d="M303.6,165.2V93.5h49.2v17.2h-29.5v11.9h24v16h-24v26.7H303.6z"/>
</g>
<g id="XMLID_3_">
	<path id="XMLID_33_" d="M160.7,146.8c0,3.2-0.7,6-2,8.3c-1.3,2.3-3.2,4.2-5.6,5.7c-2.4,1.5-5.1,2.6-8.2,3.3s-6.4,1.1-9.9,1.1H99.7
		V93.5h41.6c2.5,0,4.7,0.5,6.8,1.6c2,1.1,3.7,2.5,5.2,4.2c1.4,1.7,2.5,3.7,3.3,5.9c0.8,2.2,1.2,4.4,1.2,6.7c0,3.4-0.9,6.6-2.6,9.6
		c-1.7,3.1-4.3,5.4-7.7,6.9c4.1,1.2,7.4,3.3,9.7,6.3C159.6,137.8,160.7,141.8,160.7,146.8z M119.4,110.3v11h13.4
		c1.3,0,2.6-0.4,3.7-1.1c1.1-0.7,1.7-2.2,1.7-4.4c0-2-0.5-3.3-1.4-4.2c-0.9-0.8-2.1-1.3-3.3-1.3H119.4z M140.7,142.8
		c0-1.8-0.5-3.2-1.4-4.4c-0.9-1.2-2.2-1.8-3.6-1.8h-16.3v12H135c1.6,0,3-0.5,4.1-1.5C140.2,146.1,140.7,144.7,140.7,142.8z"/>
	<path id="XMLID_37_" d="M201.8,165.8c-5.5,0-10.4-1-14.8-3.1c-4.4-2.1-8.2-4.8-11.4-8.2c-3.2-3.4-5.6-7.3-7.4-11.7
		c-1.8-4.4-2.6-8.9-2.6-13.5c0-4.7,0.9-9.3,2.7-13.6c1.8-4.4,4.4-8.2,7.6-11.6c3.3-3.3,7.1-6,11.6-8c4.5-2,9.4-3,14.7-3
		c5.5,0,10.4,1,14.8,3.1c4.4,2.1,8.2,4.8,11.4,8.3c3.2,3.4,5.6,7.3,7.3,11.7c1.7,4.4,2.6,8.9,2.6,13.4c0,4.7-0.9,9.2-2.7,13.6
		c-1.8,4.3-4.3,8.2-7.6,11.5c-3.2,3.3-7.1,6-11.6,8C212,164.8,207.1,165.8,201.8,165.8z M185.5,129.5c0,2.4,0.3,4.8,1,7
		c0.7,2.3,1.7,4.3,3,6c1.3,1.8,3,3.2,5.1,4.2c2.1,1.1,4.5,1.6,7.3,1.6s5.3-0.6,7.4-1.7c2.1-1.1,3.8-2.6,5.1-4.3
		c1.3-1.8,2.3-3.8,2.9-6.1c0.6-2.3,1-4.6,1-7c0-2.4-0.3-4.8-1-7c-0.7-2.3-1.7-4.2-3.1-6c-1.4-1.7-3.1-3.1-5.2-4.1
		c-2.1-1-4.5-1.6-7.2-1.6c-2.8,0-5.3,0.5-7.3,1.6c-2.1,1.1-3.8,2.5-5.1,4.3c-1.3,1.8-2.3,3.8-3,6.1
		C185.8,124.8,185.5,127.1,185.5,129.5z"/>
	<path id="XMLID_40_" d="M246.7,165.2V93.5h49.2v17.2h-29.5v11.9h24v16h-24v26.7H246.7z"/>
	<path id="XMLID_42_" d="M303.6,165.2V93.5h49.2v17.2h-29.5v11.9h24v16h-24v26.7H303.6z"/>
</g>
<g id="XMLID_93_">
	<path id="XMLID_94_" class="st2" d="M172.5,146.8c0,3.2-0.7,6-2,8.3c-1.3,2.3-3.2,4.2-5.6,5.7c-2.4,1.5-5.1,2.6-8.2,3.3
		s-6.4,1.1-9.9,1.1h-35.2V93.5h41.6c2.5,0,4.7,0.5,6.8,1.6c2,1.1,3.7,2.5,5.2,4.2c1.4,1.7,2.5,3.7,3.3,5.9c0.8,2.2,1.2,4.4,1.2,6.7
		c0,3.4-0.9,6.6-2.6,9.6c-1.7,3.1-4.3,5.4-7.7,6.9c4.1,1.2,7.4,3.3,9.7,6.3C171.3,137.8,172.5,141.8,172.5,146.8z M131.2,110.3v11
		h13.4c1.3,0,2.6-0.4,3.7-1.1c1.1-0.7,1.7-2.2,1.7-4.4c0-2-0.5-3.3-1.4-4.2c-0.9-0.8-2.1-1.3-3.3-1.3H131.2z M152.5,142.8
		c0-1.8-0.5-3.2-1.4-4.4c-0.9-1.2-2.2-1.8-3.6-1.8h-16.3v12h15.6c1.6,0,3-0.5,4.1-1.5C152,146.1,152.5,144.7,152.5,142.8z"/>
	<path id="XMLID_98_" class="st2" d="M213.5,165.8c-5.5,0-10.4-1-14.8-3.1c-4.4-2.1-8.2-4.8-11.4-8.2c-3.2-3.4-5.6-7.3-7.4-11.7
		c-1.8-4.4-2.6-8.9-2.6-13.5c0-4.7,0.9-9.3,2.7-13.6c1.8-4.4,4.4-8.2,7.6-11.6c3.3-3.3,7.1-6,11.6-8c4.5-2,9.4-3,14.7-3
		c5.5,0,10.4,1,14.8,3.1c4.4,2.1,8.2,4.8,11.4,8.3c3.2,3.4,5.6,7.3,7.3,11.7c1.7,4.4,2.6,8.9,2.6,13.4c0,4.7-0.9,9.2-2.7,13.6
		c-1.8,4.3-4.3,8.2-7.6,11.5c-3.2,3.3-7.1,6-11.6,8C223.8,164.8,218.9,165.8,213.5,165.8z M197.3,129.5c0,2.4,0.3,4.8,1,7
		c0.7,2.3,1.7,4.3,3,6c1.3,1.8,3,3.2,5.1,4.2c2.1,1.1,4.5,1.6,7.3,1.6s5.3-0.6,7.4-1.7c2.1-1.1,3.8-2.6,5.1-4.3
		c1.3-1.8,2.3-3.8,2.9-6.1c0.6-2.3,1-4.6,1-7c0-2.4-0.3-4.8-1-7c-0.7-2.3-1.7-4.2-3.1-6c-1.4-1.7-3.1-3.1-5.2-4.1
		c-2.1-1-4.5-1.6-7.2-1.6c-2.8,0-5.3,0.5-7.3,1.6c-2.1,1.1-3.8,2.5-5.1,4.3c-1.3,1.8-2.3,3.8-3,6.1
		C197.6,124.8,197.3,127.1,197.3,129.5z"/>
	<path id="XMLID_101_" class="st2" d="M258.5,165.2V93.5h49.2v17.2h-29.5v11.9h24v16h-24v26.7H258.5z"/>
	<path id="XMLID_103_" class="st2" d="M315.3,165.2V93.5h49.2v17.2H335v11.9h24v16h-24v26.7H315.3z"/>
</g>
<g id="XMLID_69_">
	<path id="XMLID_70_" class="st2" d="M172.5,146.8c0,3.2-0.7,6-2,8.3c-1.3,2.3-3.2,4.2-5.6,5.7c-2.4,1.5-5.1,2.6-8.2,3.3
		s-6.4,1.1-9.9,1.1h-35.2V93.5h41.6c2.5,0,4.7,0.5,6.8,1.6c2,1.1,3.7,2.5,5.2,4.2c1.4,1.7,2.5,3.7,3.3,5.9c0.8,2.2,1.2,4.4,1.2,6.7
		c0,3.4-0.9,6.6-2.6,9.6c-1.7,3.1-4.3,5.4-7.7,6.9c4.1,1.2,7.4,3.3,9.7,6.3C171.3,137.8,172.5,141.8,172.5,146.8z M131.2,110.3v11
		h13.4c1.3,0,2.6-0.4,3.7-1.1c1.1-0.7,1.7-2.2,1.7-4.4c0-2-0.5-3.3-1.4-4.2c-0.9-0.8-2.1-1.3-3.3-1.3H131.2z M152.5,142.8
		c0-1.8-0.5-3.2-1.4-4.4c-0.9-1.2-2.2-1.8-3.6-1.8h-16.3v12h15.6c1.6,0,3-0.5,4.1-1.5C152,146.1,152.5,144.7,152.5,142.8z"/>
	<path id="XMLID_74_" class="st2" d="M213.5,165.8c-5.5,0-10.4-1-14.8-3.1c-4.4-2.1-8.2-4.8-11.4-8.2c-3.2-3.4-5.6-7.3-7.4-11.7
		c-1.8-4.4-2.6-8.9-2.6-13.5c0-4.7,0.9-9.3,2.7-13.6c1.8-4.4,4.4-8.2,7.6-11.6c3.3-3.3,7.1-6,11.6-8c4.5-2,9.4-3,14.7-3
		c5.5,0,10.4,1,14.8,3.1c4.4,2.1,8.2,4.8,11.4,8.3c3.2,3.4,5.6,7.3,7.3,11.7c1.7,4.4,2.6,8.9,2.6,13.4c0,4.7-0.9,9.2-2.7,13.6
		c-1.8,4.3-4.3,8.2-7.6,11.5c-3.2,3.3-7.1,6-11.6,8C223.8,164.8,218.9,165.8,213.5,165.8z M197.3,129.5c0,2.4,0.3,4.8,1,7
		c0.7,2.3,1.7,4.3,3,6c1.3,1.8,3,3.2,5.1,4.2c2.1,1.1,4.5,1.6,7.3,1.6s5.3-0.6,7.4-1.7c2.1-1.1,3.8-2.6,5.1-4.3
		c1.3-1.8,2.3-3.8,2.9-6.1c0.6-2.3,1-4.6,1-7c0-2.4-0.3-4.8-1-7c-0.7-2.3-1.7-4.2-3.1-6c-1.4-1.7-3.1-3.1-5.2-4.1
		c-2.1-1-4.5-1.6-7.2-1.6c-2.8,0-5.3,0.5-7.3,1.6c-2.1,1.1-3.8,2.5-5.1,4.3c-1.3,1.8-2.3,3.8-3,6.1
		C197.6,124.8,197.3,127.1,197.3,129.5z"/>
	<path id="XMLID_77_" class="st2" d="M258.5,165.2V93.5h49.2v17.2h-29.5v11.9h24v16h-24v26.7H258.5z"/>
	<path id="XMLID_79_" class="st2" d="M315.3,165.2V93.5h49.2v17.2H335v11.9h24v16h-24v26.7H315.3z"/>
</g>
<g id="XMLID_4_">
	<path id="XMLID_44_" class="st2" d="M172.5,146.8c0,3.2-0.7,6-2,8.3c-1.3,2.3-3.2,4.2-5.6,5.7c-2.4,1.5-5.1,2.6-8.2,3.3
		s-6.4,1.1-9.9,1.1h-35.2V93.5h41.6c2.5,0,4.7,0.5,6.8,1.6c2,1.1,3.7,2.5,5.2,4.2c1.4,1.7,2.5,3.7,3.3,5.9c0.8,2.2,1.2,4.4,1.2,6.7
		c0,3.4-0.9,6.6-2.6,9.6c-1.7,3.1-4.3,5.4-7.7,6.9c4.1,1.2,7.4,3.3,9.7,6.3C171.3,137.8,172.5,141.8,172.5,146.8z M131.2,110.3v11
		h13.4c1.3,0,2.6-0.4,3.7-1.1c1.1-0.7,1.7-2.2,1.7-4.4c0-2-0.5-3.3-1.4-4.2c-0.9-0.8-2.1-1.3-3.3-1.3H131.2z M152.5,142.8
		c0-1.8-0.5-3.2-1.4-4.4c-0.9-1.2-2.2-1.8-3.6-1.8h-16.3v12h15.6c1.6,0,3-0.5,4.1-1.5C152,146.1,152.5,144.7,152.5,142.8z"/>
	<path id="XMLID_48_" class="st2" d="M213.5,165.8c-5.5,0-10.4-1-14.8-3.1c-4.4-2.1-8.2-4.8-11.4-8.2c-3.2-3.4-5.6-7.3-7.4-11.7
		c-1.8-4.4-2.6-8.9-2.6-13.5c0-4.7,0.9-9.3,2.7-13.6c1.8-4.4,4.4-8.2,7.6-11.6c3.3-3.3,7.1-6,11.6-8c4.5-2,9.4-3,14.7-3
		c5.5,0,10.4,1,14.8,3.1c4.4,2.1,8.2,4.8,11.4,8.3c3.2,3.4,5.6,7.3,7.3,11.7c1.7,4.4,2.6,8.9,2.6,13.4c0,4.7-0.9,9.2-2.7,13.6
		c-1.8,4.3-4.3,8.2-7.6,11.5c-3.2,3.3-7.1,6-11.6,8C223.8,164.8,218.9,165.8,213.5,165.8z M197.3,129.5c0,2.4,0.3,4.8,1,7
		c0.7,2.3,1.7,4.3,3,6c1.3,1.8,3,3.2,5.1,4.2c2.1,1.1,4.5,1.6,7.3,1.6s5.3-0.6,7.4-1.7c2.1-1.1,3.8-2.6,5.1-4.3
		c1.3-1.8,2.3-3.8,2.9-6.1c0.6-2.3,1-4.6,1-7c0-2.4-0.3-4.8-1-7c-0.7-2.3-1.7-4.2-3.1-6c-1.4-1.7-3.1-3.1-5.2-4.1
		c-2.1-1-4.5-1.6-7.2-1.6c-2.8,0-5.3,0.5-7.3,1.6c-2.1,1.1-3.8,2.5-5.1,4.3c-1.3,1.8-2.3,3.8-3,6.1
		C197.6,124.8,197.3,127.1,197.3,129.5z"/>
	<path id="XMLID_51_" class="st2" d="M258.5,165.2V93.5h49.2v17.2h-29.5v11.9h24v16h-24v26.7H258.5z"/>
	<path id="XMLID_53_" class="st2" d="M315.3,165.2V93.5h49.2v17.2H335v11.9h24v16h-24v26.7H315.3z"/>
</g>
<circle id="XMLID_31_" class="st3" cx="99.4" cy="200.4" r="34.9"/>
</svg>
