<?xml version="1.0" encoding="utf-8"?>
<!-- Generator: Adobe Illustrator 19.0.0, SVG Export Plug-In . SVG Version: 6.00 Build 0)  -->
<svg version="1.1" id="Layer_1" xmlns="http://www.w3.org/2000/svg" xmlns:xlink="http://www.w3.org/1999/xlink" x="0px" y="0px"
	 viewBox="-278 154.4 402.7 253.6" style="enable-background:new -278 154.4 402.7 253.6;" xml:space="preserve">
<style type="text/css">
	.st0{fill:url(#XMLID_4_);}
</style>
<linearGradient id="XMLID_4_" gradientUnits="userSpaceOnUse" x1="-275.5" y1="283.6" x2="-26.9" y2="283.6" gradientTransform="matrix(1 0 0 -1 0 564.8)">
	<stop  offset="0" style="stop-color:#FFFF00"/>
	<stop  offset="8.443775e-002" style="stop-color:#FFF607"/>
	<stop  offset="0.225" style="stop-color:#FEDC19"/>
	<stop  offset="0.4043" style="stop-color:#FDB237"/>
	<stop  offset="0.6153" style="stop-color:#FC7960"/>
	<stop  offset="0.8504" style="stop-color:#FA3094"/>
	<stop  offset="0.9944" style="stop-color:#F900B6"/>
</linearGradient>
<circle id="XMLID_1_" class="st0" cx="-151.2" cy="281.2" r="124.3"/>
<g id="XMLID_53_">
	<path id="XMLID_54_" d="M-117.3,301.2c0,3.2-0.7,6-2,8.3s-3.2,4.2-5.6,5.7c-2.4,1.5-5.1,2.6-8.2,3.3s-6.4,1.1-9.9,1.1h-35.3v-71.7
		h41.6c2.5,0,4.7,0.5,6.8,1.6c2,1.1,3.7,2.5,5.2,4.2c1.4,1.7,2.5,3.7,3.3,5.9c0.8,2.2,1.2,4.4,1.2,6.7c0,3.4-0.9,6.6-2.6,9.6
		c-1.7,3.1-4.3,5.4-7.7,6.9c4.1,1.2,7.4,3.3,9.7,6.3C-118.4,292.2-117.3,296.2-117.3,301.2z M-158.6,264.7v11h13.4
		c1.3,0,2.6-0.4,3.7-1.1c1.1-0.7,1.7-2.2,1.7-4.4c0-2-0.5-3.3-1.4-4.2c-0.9-0.8-2.1-1.3-3.3-1.3H-158.6z M-137.3,297.2
		c0-1.8-0.5-3.2-1.4-4.4c-0.9-1.2-2.2-1.8-3.6-1.8h-16.3v12h15.6c1.6,0,3-0.5,4.1-1.5C-137.8,300.5-137.3,299.1-137.3,297.2z"/>
	<path id="XMLID_58_" d="M-76.2,320.2c-5.5,0-10.4-1-14.8-3.1c-4.4-2.1-8.2-4.8-11.4-8.2s-5.6-7.3-7.4-11.7
		c-1.8-4.4-2.6-8.9-2.6-13.5c0-4.7,0.9-9.3,2.7-13.6c1.8-4.4,4.4-8.2,7.6-11.6c3.3-3.3,7.1-6,11.6-8s9.4-3,14.7-3
		c5.5,0,10.4,1,14.8,3.1c4.4,2.1,8.2,4.8,11.4,8.3c3.2,3.4,5.6,7.3,7.3,11.7s2.6,8.9,2.6,13.4c0,4.7-0.9,9.2-2.7,13.6
		c-1.8,4.3-4.3,8.2-7.6,11.5c-3.2,3.3-7.1,6-11.6,8C-66,319.2-70.9,320.2-76.2,320.2z M-92.5,283.9c0,2.4,0.3,4.8,1,7
		c0.7,2.3,1.7,4.3,3,6c1.3,1.8,3,3.2,5.1,4.2c2.1,1.1,4.5,1.6,7.3,1.6s5.3-0.6,7.4-1.7c2.1-1.1,3.8-2.6,5.1-4.3
		c1.3-1.8,2.3-3.8,2.9-6.1c0.6-2.3,1-4.6,1-7c0-2.4-0.3-4.8-1-7c-0.7-2.3-1.7-4.2-3.1-6c-1.4-1.7-3.1-3.1-5.2-4.1
		c-2.1-1-4.5-1.6-7.2-1.6c-2.8,0-5.3,0.5-7.3,1.6c-2.1,1.1-3.8,2.5-5.1,4.3c-1.3,1.8-2.3,3.8-3,6.1
		C-92.2,279.2-92.5,281.5-92.5,283.9z"/>
	<path id="XMLID_61_" d="M-31.3,319.6v-71.7h49.2v17.2h-29.5V277h24v16h-24v26.7h-19.7V319.6z"/>
	<path id="XMLID_63_" d="M25.6,319.6v-71.7h49.2v17.2H45.3V277h24v16h-24v26.7H25.6V319.6z"/>
</g>
<g id="XMLID_28_">
	<path id="XMLID_29_" d="M-117.3,301.2c0,3.2-0.7,6-2,8.3s-3.2,4.2-5.6,5.7c-2.4,1.5-5.1,2.6-8.2,3.3s-6.4,1.1-9.9,1.1h-35.3v-71.7
		h41.6c2.5,0,4.7,0.5,6.8,1.6c2,1.1,3.7,2.5,5.2,4.2c1.4,1.7,2.5,3.7,3.3,5.9c0.8,2.2,1.2,4.4,1.2,6.7c0,3.4-0.9,6.6-2.6,9.6
		c-1.7,3.1-4.3,5.4-7.7,6.9c4.1,1.2,7.4,3.3,9.7,6.3C-118.4,292.2-117.3,296.2-117.3,301.2z M-158.6,264.7v11h13.4
		c1.3,0,2.6-0.4,3.7-1.1c1.1-0.7,1.7-2.2,1.7-4.4c0-2-0.5-3.3-1.4-4.2c-0.9-0.8-2.1-1.3-3.3-1.3H-158.6z M-137.3,297.2
		c0-1.8-0.5-3.2-1.4-4.4c-0.9-1.2-2.2-1.8-3.6-1.8h-16.3v12h15.6c1.6,0,3-0.5,4.1-1.5C-137.8,300.5-137.3,299.1-137.3,297.2z"/>
	<path id="XMLID_34_" d="M-76.2,320.2c-5.5,0-10.4-1-14.8-3.1c-4.4-2.1-8.2-4.8-11.4-8.2s-5.6-7.3-7.4-11.7
		c-1.8-4.4-2.6-8.9-2.6-13.5c0-4.7,0.9-9.3,2.7-13.6c1.8-4.4,4.4-8.2,7.6-11.6c3.3-3.3,7.1-6,11.6-8s9.4-3,14.7-3
		c5.5,0,10.4,1,14.8,3.1c4.4,2.1,8.2,4.8,11.4,8.3c3.2,3.4,5.6,7.3,7.3,11.7s2.6,8.9,2.6,13.4c0,4.7-0.9,9.2-2.7,13.6
		c-1.8,4.3-4.3,8.2-7.6,11.5c-3.2,3.3-7.1,6-11.6,8C-66,319.2-70.9,320.2-76.2,320.2z M-92.5,283.9c0,2.4,0.3,4.8,1,7
		c0.7,2.3,1.7,4.3,3,6c1.3,1.8,3,3.2,5.1,4.2c2.1,1.1,4.5,1.6,7.3,1.6s5.3-0.6,7.4-1.7c2.1-1.1,3.8-2.6,5.1-4.3
		c1.3-1.8,2.3-3.8,2.9-6.1c0.6-2.3,1-4.6,1-7c0-2.4-0.3-4.8-1-7c-0.7-2.3-1.7-4.2-3.1-6c-1.4-1.7-3.1-3.1-5.2-4.1
		c-2.1-1-4.5-1.6-7.2-1.6c-2.8,0-5.3,0.5-7.3,1.6c-2.1,1.1-3.8,2.5-5.1,4.3c-1.3,1.8-2.3,3.8-3,6.1
		C-92.2,279.2-92.5,281.5-92.5,283.9z"/>
	<path id="XMLID_37_" d="M-31.3,319.6v-71.7h49.2v17.2h-29.5V277h24v16h-24v26.7h-19.7V319.6z"/>
	<path id="XMLID_39_" d="M25.6,319.6v-71.7h49.2v17.2H45.3V277h24v16h-24v26.7H25.6V319.6z"/>
</g>
<g id="XMLID_3_">
	<path id="XMLID_5_" d="M-117.3,301.2c0,3.2-0.7,6-2,8.3s-3.2,4.2-5.6,5.7c-2.4,1.5-5.1,2.6-8.2,3.3s-6.4,1.1-9.9,1.1h-35.3v-71.7
		h41.6c2.5,0,4.7,0.5,6.8,1.6c2,1.1,3.7,2.5,5.2,4.2c1.4,1.7,2.5,3.7,3.3,5.9c0.8,2.2,1.2,4.4,1.2,6.7c0,3.4-0.9,6.6-2.6,9.6
		c-1.7,3.1-4.3,5.4-7.7,6.9c4.1,1.2,7.4,3.3,9.7,6.3C-118.4,292.2-117.3,296.2-117.3,301.2z M-158.6,264.7v11h13.4
		c1.3,0,2.6-0.4,3.7-1.1c1.1-0.7,1.7-2.2,1.7-4.4c0-2-0.5-3.3-1.4-4.2c-0.9-0.8-2.1-1.3-3.3-1.3H-158.6z M-137.3,297.2
		c0-1.8-0.5-3.2-1.4-4.4c-0.9-1.2-2.2-1.8-3.6-1.8h-16.3v12h15.6c1.6,0,3-0.5,4.1-1.5C-137.8,300.5-137.3,299.1-137.3,297.2z"/>
	<path id="XMLID_9_" d="M-76.2,320.2c-5.5,0-10.4-1-14.8-3.1c-4.4-2.1-8.2-4.8-11.4-8.2s-5.6-7.3-7.4-11.7
		c-1.8-4.4-2.6-8.9-2.6-13.5c0-4.7,0.9-9.3,2.7-13.6c1.8-4.4,4.4-8.2,7.6-11.6c3.3-3.3,7.1-6,11.6-8s9.4-3,14.7-3
		c5.5,0,10.4,1,14.8,3.1c4.4,2.1,8.2,4.8,11.4,8.3c3.2,3.4,5.6,7.3,7.3,11.7s2.6,8.9,2.6,13.4c0,4.7-0.9,9.2-2.7,13.6
		c-1.8,4.3-4.3,8.2-7.6,11.5c-3.2,3.3-7.1,6-11.6,8C-66,319.2-70.9,320.2-76.2,320.2z M-92.5,283.9c0,2.4,0.3,4.8,1,7
		c0.7,2.3,1.7,4.3,3,6c1.3,1.8,3,3.2,5.1,4.2c2.1,1.1,4.5,1.6,7.3,1.6s5.3-0.6,7.4-1.7c2.1-1.1,3.8-2.6,5.1-4.3
		c1.3-1.8,2.3-3.8,2.9-6.1c0.6-2.3,1-4.6,1-7c0-2.4-0.3-4.8-1-7c-0.7-2.3-1.7-4.2-3.1-6c-1.4-1.7-3.1-3.1-5.2-4.1
		c-2.1-1-4.5-1.6-7.2-1.6c-2.8,0-5.3,0.5-7.3,1.6c-2.1,1.1-3.8,2.5-5.1,4.3c-1.3,1.8-2.3,3.8-3,6.1
		C-92.2,279.2-92.5,281.5-92.5,283.9z"/>
	<path id="XMLID_12_" d="M-31.3,319.6v-71.7h49.2v17.2h-29.5V277h24v16h-24v26.7h-19.7V319.6z"/>
	<path id="XMLID_14_" d="M25.6,319.6v-71.7h49.2v17.2H45.3V277h24v16h-24v26.7H25.6V319.6z"/>
</g>
<circle id="XMLID_31_" cx="-178.6" cy="345.8" r="34.9"/>
</svg>
