<?xml version="1.0" encoding="iso-8859-1"?>
<!-- Generator: Adobe Illustrator 19.0.0, SVG Export Plug-In . SVG Version: 6.00 Build 0)  -->
<svg version="1.1" id="Layer_1" xmlns="http://www.w3.org/2000/svg" xmlns:xlink="http://www.w3.org/1999/xlink" x="0px" y="0px"
	 viewBox="0 0 512 512" style="enable-background:new 0 0 512 512;" xml:space="preserve">
<g>
	<g>
		<path d="M434.087,148.158v16.696h25.933l-73.237,82.392V142.711c0.919-0.07,1.845-0.118,2.783-0.118h8.348V25.724H114.087v116.87
			h8.348c0.937,0,1.863,0.047,2.783,0.118v104.535L51.98,164.854h25.933v-16.696H0v16.696h29.643l74.203,83.478h-12.02v50.087
			h16.991l131.929,86.261l-134.009,87.622l9.137,13.974L256,394.654l140.128,91.621l9.137-13.974l-134.009-87.622l131.929-86.261
			h16.99v-50.087h-12.02l74.203-83.478H512v-16.695H434.087z M130.783,42.419h250.435v84.137
			c-25.2,4.013-44.522,25.898-44.522,52.211v69.565H175.304v-69.565c0-26.313-19.321-48.198-44.522-52.211V42.419z M370.087,148.309
			v100.024h-16.696v-69.565C353.391,165.989,360.056,154.746,370.087,148.309z M158.609,178.767v69.565h-16.696V148.309
			C151.944,154.746,158.609,165.989,158.609,178.767z M256,374.706l-116.674-76.287h233.347L256,374.706z M403.478,281.724H108.522
			v-16.696h294.957V281.724z"/>
	</g>
</g>
<g>
</g>
<g>
</g>
<g>
</g>
<g>
</g>
<g>
</g>
<g>
</g>
<g>
</g>
<g>
</g>
<g>
</g>
<g>
</g>
<g>
</g>
<g>
</g>
<g>
</g>
<g>
</g>
<g>
</g>
</svg>
